# Blender v2.80 (sub 75) OBJ File: 'Menu_Buttons.blend'
# www.blender.org
o Circle.004_Circle.010
v -0.014235 6.368003 4.314885
v -0.014235 6.419461 4.145250
v -0.014235 6.282653 4.474564
v -0.014235 6.167790 4.614523
v -0.014235 6.027831 4.729385
v -0.014235 5.868152 4.814735
v -0.014235 5.694890 4.867293
v -0.014235 5.514704 4.885040
v -0.014235 5.334518 4.867293
v -0.014234 5.161257 4.814735
v -0.014234 5.001578 4.729385
v -0.014234 4.861619 4.614523
v -0.014234 4.746757 4.474563
v -0.014234 4.661407 4.314884
v -0.014234 4.609948 4.145249
v -0.014235 6.419461 -4.145250
v -0.014235 6.368003 -4.314885
v -0.014235 6.282653 -4.474564
v -0.014235 6.167790 -4.614523
v -0.014235 6.027831 -4.729385
v -0.014235 5.868152 -4.814735
v -0.014235 5.694890 -4.867293
v -0.014235 5.514704 -4.885040
v -0.014235 5.334518 -4.867293
v -0.014234 5.161257 -4.814735
v -0.014234 5.001578 -4.729385
v -0.014234 4.861619 -4.614523
v -0.014234 4.746757 -4.474563
v -0.014234 4.661407 -4.314884
v -0.014234 4.609948 -4.145249
v -0.014235 6.257650 4.269176
v -0.014235 6.300591 4.127617
v -0.014235 6.183338 4.408204
v -0.014235 6.083331 4.530063
v -0.014235 5.961471 4.630071
v -0.014235 5.822443 4.704383
v -0.014235 5.671588 4.750144
v -0.014235 5.514704 4.765596
v -0.014235 5.357821 4.750144
v -0.014235 5.206966 4.704383
v -0.014234 5.067938 4.630071
v -0.014234 4.946078 4.530063
v -0.014234 4.846071 4.408204
v -0.014234 4.771759 4.269175
v -0.014234 4.728818 4.127617
v -0.014235 6.300591 -4.127617
v -0.014235 6.257650 -4.269176
v -0.014235 6.183338 -4.408204
v -0.014235 6.083331 -4.530063
v -0.014235 5.961471 -4.630071
v -0.014235 5.822443 -4.704383
v -0.014235 5.671588 -4.750144
v -0.014235 5.514704 -4.765596
v -0.014235 5.357821 -4.750144
v -0.014235 5.206966 -4.704383
v -0.014234 5.067938 -4.630071
v -0.014234 4.946078 -4.530063
v -0.014234 4.846071 -4.408204
v -0.014234 4.771759 -4.269175
v -0.014234 4.728818 -4.127617
vt 0.000000 0.000000
vt 0.000000 0.000000
vt 0.000000 0.000000
vt 0.000000 0.000000
vt 0.000000 0.000000
vt 0.000000 0.000000
vt 0.000000 0.000000
vt 0.000000 0.000000
vt 0.000000 0.000000
vt 0.000000 0.000000
vt 0.000000 0.000000
vt 0.000000 0.000000
vt 0.000000 0.000000
vt 0.000000 0.000000
vt 0.000000 0.000000
vt 0.000000 0.000000
vt 0.000000 0.000000
vt 0.000000 0.000000
vt 0.000000 0.000000
vt 0.000000 0.000000
vt 0.000000 0.000000
vt 0.000000 0.000000
vt 0.000000 0.000000
vt 0.000000 0.000000
vt 0.000000 0.000000
vt 0.000000 0.000000
vt 0.000000 0.000000
vt 0.000000 0.000000
vt 0.000000 0.000000
vt 0.000000 0.000000
vt 0.000000 0.000000
vt 0.000000 0.000000
vt 0.000000 0.000000
vt 0.000000 0.000000
vt 0.000000 0.000000
vt 0.000000 0.000000
vt 0.000000 0.000000
vt 0.000000 0.000000
vt 0.000000 0.000000
vt 0.000000 0.000000
vt 0.000000 0.000000
vt 0.000000 0.000000
vt 0.000000 0.000000
vt 0.000000 0.000000
vt 0.000000 0.000000
vt 0.000000 0.000000
vt 0.000000 0.000000
vt 0.000000 0.000000
vt 0.000000 0.000000
vt 0.000000 0.000000
vt 0.000000 0.000000
vt 0.000000 0.000000
vt 0.000000 0.000000
vt 0.000000 0.000000
vt 0.000000 0.000000
vt 0.000000 0.000000
vt 0.000000 0.000000
vt 0.000000 0.000000
vt 0.000000 0.000000
vt 0.000000 0.000000
vn 1.0000 0.0000 0.0000
s off
f 31/1/1 32/2/1 2/3/1 1/4/1
f 33/5/1 31/1/1 1/4/1 3/6/1
f 34/7/1 33/5/1 3/6/1 4/8/1
f 35/9/1 34/7/1 4/8/1 5/10/1
f 36/11/1 35/9/1 5/10/1 6/12/1
f 37/13/1 36/11/1 6/12/1 7/14/1
f 38/15/1 37/13/1 7/14/1 8/16/1
f 39/17/1 38/15/1 8/16/1 9/18/1
f 40/19/1 39/17/1 9/18/1 10/20/1
f 41/21/1 40/19/1 10/20/1 11/22/1
f 42/23/1 41/21/1 11/22/1 12/24/1
f 43/25/1 42/23/1 12/24/1 13/26/1
f 44/27/1 43/25/1 13/26/1 14/28/1
f 45/29/1 44/27/1 14/28/1 15/30/1
f 32/2/1 46/31/1 16/32/1 2/3/1
f 46/31/1 47/33/1 17/34/1 16/32/1
f 47/33/1 48/35/1 18/36/1 17/34/1
f 48/35/1 49/37/1 19/38/1 18/36/1
f 49/37/1 50/39/1 20/40/1 19/38/1
f 50/39/1 51/41/1 21/42/1 20/40/1
f 51/41/1 52/43/1 22/44/1 21/42/1
f 52/43/1 53/45/1 23/46/1 22/44/1
f 53/45/1 54/47/1 24/48/1 23/46/1
f 54/47/1 55/49/1 25/50/1 24/48/1
f 55/49/1 56/51/1 26/52/1 25/50/1
f 56/51/1 57/53/1 27/54/1 26/52/1
f 57/53/1 58/55/1 28/56/1 27/54/1
f 58/55/1 59/57/1 29/58/1 28/56/1
f 59/57/1 60/59/1 30/60/1 29/58/1
f 60/59/1 45/29/1 15/30/1 30/60/1
