# Blender v2.80 (sub 75) OBJ File: 'Menu_Buttons.blend'
# www.blender.org
o BUTTON_arrow_icon_Cube.001
v -1.490825 0.917667 -36.625866
v -1.490825 0.891344 -36.625866
v -1.490825 0.201040 -35.943001
v -1.490825 0.545251 -35.930008
v -1.490825 1.607970 -35.943001
v -1.490825 1.263760 -35.930008
v -1.490825 0.545251 -34.752975
v -1.490825 1.263760 -34.752975
v -1.449763 -0.821268 -33.985447
v -1.449763 -0.842001 -34.054031
v -1.449763 -0.794035 -34.081989
v -1.449763 -0.770549 -34.023109
v -1.449763 -0.721867 -34.103252
v -1.449763 -0.717527 -34.038776
v -1.449763 -0.653049 -34.034435
v -1.449763 -0.674315 -33.962269
v -1.449763 -0.733192 -33.985756
v -1.449763 -0.702273 -33.914303
v -1.449763 -0.770855 -33.935036
v -1.449763 2.603045 -34.081989
v -1.449763 2.651012 -34.054031
v -1.449763 2.630279 -33.985447
v -1.449763 2.579559 -34.023109
v -1.449763 2.579866 -33.935036
v -1.449763 2.542203 -33.985756
v -1.449763 2.511284 -33.914303
v -1.449763 2.483326 -33.962269
v -1.449763 2.462060 -34.034435
v -1.449763 2.526538 -34.038776
v -1.449763 2.530878 -34.103252
v -1.449763 -0.770855 -37.386581
v -1.449763 -0.702273 -37.407314
v -1.449763 -0.674315 -37.359348
v -1.449763 -0.733192 -37.335861
v -1.449763 -0.653049 -37.287182
v -1.449763 -0.717527 -37.282841
v -1.449763 -0.721867 -37.218365
v -1.449763 -0.794035 -37.239628
v -1.449763 -0.770549 -37.298504
v -1.449763 -0.842001 -37.267586
v -1.449763 -0.821269 -37.336170
v -1.449763 2.483326 -37.359348
v -1.449763 2.511284 -37.407314
v -1.449763 2.579866 -37.386581
v -1.449763 2.542203 -37.335861
v -1.449763 2.630279 -37.336170
v -1.449763 2.579559 -37.298504
v -1.449763 2.651012 -37.267586
v -1.449763 2.603046 -37.239628
v -1.449763 2.530878 -37.218365
v -1.449763 2.526538 -37.282841
v -1.449763 2.462060 -37.287182
vt 0.465026 0.606764
vt 0.534974 0.606764
vt 0.534974 0.686496
vt 0.465026 0.686496
vt 0.465026 0.559627
vt 0.534974 0.559627
vt 0.534974 0.605884
vt 0.465026 0.605884
vt 0.381693 0.733842
vt 0.381693 0.516158
vt 0.384942 0.518052
vt 0.384942 0.731948
vt 0.389831 0.519492
vt 0.389831 0.730508
vt 0.386533 0.735937
vt 0.383097 0.738488
vt 0.390125 0.734875
vt 0.394492 0.735169
vt 0.393052 0.740058
vt 0.389063 0.738467
vt 0.391158 0.743307
vt 0.386512 0.741903
vt 0.618307 0.733842
vt 0.616903 0.738488
vt 0.613467 0.735937
vt 0.615058 0.731948
vt 0.613488 0.741903
vt 0.610937 0.738467
vt 0.608842 0.743307
vt 0.606948 0.740058
vt 0.605508 0.735169
vt 0.609875 0.734875
vt 0.610169 0.730508
vt 0.391158 0.506693
vt 0.393052 0.509942
vt 0.389063 0.511533
vt 0.386512 0.508097
vt 0.394492 0.514831
vt 0.390125 0.515125
vt 0.386533 0.514063
vt 0.383097 0.511512
vt 0.608842 0.506693
vt 0.613488 0.508097
vt 0.610937 0.511533
vt 0.606948 0.509942
vt 0.616903 0.511512
vt 0.613467 0.514063
vt 0.618307 0.516158
vt 0.615058 0.518052
vt 0.610169 0.519492
vt 0.609875 0.515125
vt 0.605508 0.514831
vn 1.0000 0.0000 0.0000
s off
f 4/1/1 6/2/1 8/3/1 7/4/1
f 2/5/1 1/6/1 5/7/1 3/8/1
f 3/8/1 5/7/1 6/2/1 4/1/1
f 10/9/1 40/10/1 38/11/1 11/12/1
f 11/12/1 38/11/1 37/13/1 13/14/1
f 10/9/1 11/12/1 12/15/1 9/16/1
f 11/12/1 13/14/1 14/17/1 12/15/1
f 15/18/1 16/19/1 17/20/1 14/17/1
f 18/21/1 19/22/1 17/20/1 16/19/1
f 19/22/1 9/16/1 12/15/1 17/20/1
f 12/15/1 14/17/1 17/20/1
f 21/23/1 22/24/1 23/25/1 20/26/1
f 22/24/1 24/27/1 25/28/1 23/25/1
f 26/29/1 27/30/1 25/28/1 24/27/1
f 27/30/1 28/31/1 29/32/1 25/28/1
f 30/33/1 20/26/1 23/25/1 29/32/1
f 23/25/1 25/28/1 29/32/1
f 32/34/1 33/35/1 34/36/1 31/37/1
f 33/35/1 35/38/1 36/39/1 34/36/1
f 37/13/1 38/11/1 39/40/1 36/39/1
f 40/10/1 41/41/1 39/40/1 38/11/1
f 41/41/1 31/37/1 34/36/1 39/40/1
f 34/36/1 36/39/1 39/40/1
f 43/42/1 44/43/1 45/44/1 42/45/1
f 44/43/1 46/46/1 47/47/1 45/44/1
f 48/48/1 49/49/1 47/47/1 46/46/1
f 49/49/1 50/50/1 51/51/1 47/47/1
f 52/52/1 42/45/1 45/44/1 51/51/1
f 45/44/1 47/47/1 51/51/1
f 48/48/1 21/23/1 20/26/1 49/49/1
f 49/49/1 20/26/1 30/33/1 50/50/1
f 27/30/1 16/19/1 15/18/1 28/31/1
f 26/29/1 18/21/1 16/19/1 27/30/1
f 42/45/1 33/35/1 32/34/1 43/42/1
f 52/52/1 35/38/1 33/35/1 42/45/1
